<?xml version="1.0" encoding="UTF-8"?>
<svg id="Capa_2" data-name="Capa 2" xmlns="http://www.w3.org/2000/svg" viewBox="0 0 150 151.13">
  <defs>
    <style>
      .cls-1 {
        fill: #fff;
      }

      .cls-2 {
        fill: #0080ff;
      }
    </style>
  </defs>
  <g id="Layer_1" data-name="Layer 1">
    <g>
      <path class="cls-2" d="m76.69,120.73v30.4h5.62v-7.68c0-3.52,2.45-6.56,5.89-7.31.66-.14,1.34-.3,2.04-.48,3.39-.85,6.92.74,8.51,3.86l3.34,6.57,12.61-6.2-3.18-5.95c-1.72-3.23-.86-7.23,2.04-9.46.45-.34.9-.69,1.35-1.05,2.69-2.1,6.47-2.11,9.18-.02l5.54,4.28,8.53-10.26-5.68-4.54c-2.8-2.24-3.63-6.16-1.95-9.33.35-.66.7-1.35,1.03-2.02,1.52-3.09,4.94-4.76,8.31-4.02l7.02,1.52,3.1-13.55-6.94-1.53c-3.19-.7-5.54-3.4-5.84-6.66,0-.05,0-.09-.01-.14h-17.07s-.58,39.7-43.44,43.57Z"/>
      <path class="cls-2" d="m76.69,30.41V.29h5.62v7.54c0,3.52,2.46,6.57,5.9,7.31.66.14,1.36.3,2.06.48,3.38.84,6.89-.74,8.48-3.84l3.34-6.5,12.61,6.14-3.13,5.8c-1.75,3.24-.88,7.28,2.06,9.5.44.33.88.67,1.32,1.01,2.68,2.08,6.43,2.09,9.12.02l5.56-4.26,8.53,10.17-5.63,4.45c-2.83,2.24-3.66,6.19-1.96,9.38.33.63.67,1.27.98,1.91,1.52,3.07,4.93,4.72,8.28,4l7.05-1.52,3.1,13.43-6.94,1.51c-3.2.7-5.54,3.4-5.86,6.65,0,.03,0,.06,0,.08h-17.07s-.58-39.33-43.44-43.17Z"/>
      <g>
        <path class="cls-2" d="m30.06,74.59c.47-24.31,20.03-43.95,44.33-44.53V0c-9.79.14-19.31,2.13-28.3,5.93-8.99,3.8-17.06,9.24-23.99,16.17-6.92,6.92-12.36,14.99-16.17,23.99C2.1,55.14.11,64.72,0,74.59h30.06Z"/>
        <path class="cls-2" d="m74.39,120.89c-23.9-.57-43.24-19.59-44.29-43.37H.02c.25,9.46,2.24,18.65,5.92,27.35,3.8,8.99,9.24,17.06,16.17,23.99,6.92,6.92,14.99,12.36,23.99,16.17,8.99,3.8,18.51,5.79,28.3,5.93v-30.06Z"/>
      </g>
      <path class="cls-1" d="m117.34,70.36h-7.87s0,0,0-.01c.26,1.7.4,3.44.4,5.22,0,18.96-15.64,34.38-34.86,34.38s-34.87-15.42-34.87-34.38,15.64-34.37,34.87-34.37c14.61,0,27.16,8.91,32.33,21.51l8.05-.78c-5.73-16.6-21.64-28.53-40.38-28.53-23.57,0-42.67,18.88-42.67,42.17s19.1,42.18,42.67,42.18,42.66-18.88,42.66-42.18c0-1.76-.11-3.5-.32-5.21Z"/>
      <path class="cls-1" d="m71.16,71.81h-7.92s5.73-7.69,10.19-5.8c0,0,1.8.1,7.49,3.68,0,0,1.24.62,1.96.66h34.47s.71,6.8,0,10.1l-12.88.3h-23.48s-1.1-.28-2.53.62c0,0-2.92,1.91-3.46,2.19,0,0-2.58,1.8-5.31.84,0,0-1.53-.34-3.2-1.74,0,0-1.29-.94-3.3-3.33h7.97l2.43-3.75-2.43-3.75Z"/>
    </g>
  </g>
</svg>