<?xml version="1.0" encoding="UTF-8"?>
<svg id="Capa_2" data-name="Capa 2" xmlns="http://www.w3.org/2000/svg" viewBox="0 0 191.46 40">
  <defs>
    <style>
      .cls-1 {
        fill: #fff;
      }

      .cls-2 {
        fill: #0080ff;
      }

      .cls-3 {
        fill: #f2f2f2;
      }
    </style>
  </defs>
  <g id="Layer_1" data-name="Layer 1">
    <g>
      <g>
        <path class="cls-3" d="m79.72,25.66l-.78,4.23h-15.96l-3.26-3.89,2.45-13.48c.06-.34.18-.66.37-.96.19-.3.43-.57.71-.79.28-.23.58-.41.91-.54.33-.13.66-.2,1.01-.2h17.08l-.52,2.87h-11.35c-.38,0-.74.14-1.08.43-.34.28-.54.62-.62,1.02l-2.05,11.29c-.08.4,0,.74.24,1.02.24.28.56.43.97.43h4.75l1.18-6.44h-2.62l1.87-2.78h8.15l-1.47,7.8Z"/>
        <path class="cls-3" d="m83.26,29.86l.52-2.78v-.09l1.01-5.65.26-1.42.26-1.42,1.01-5.65v-.09l-.81-2.78h18.81l-.52,2.87h-9.51c-.33,0-.62.11-.88.32-.26.22-.42.48-.48.8l-.23,1.21-.49,2.68h7.75l-.52,2.87h-7.75l-.12.65-.81,4.54c-.06.32,0,.59.19.81.18.22.44.33.76.33h10.74l.12.09-1.87,2.78-17.46-.09Z"/>
        <path class="cls-3" d="m105.21,29.91l.52-2.78,2.59-14.3-.81-2.78h8.15l-2.88,15.86c-.06.32,0,.59.19.81.18.22.44.33.76.33h10.74l-1.76,2.89-17.51-.03Z"/>
        <path class="cls-3" d="m127.8,12.87c.08-.4.22-.77.43-1.11.21-.34.47-.64.78-.89.31-.26.65-.46,1.02-.61.37-.15.76-.23,1.17-.23h15.27l-.52,2.87h-10.2c-.33,0-.62.11-.88.33-.26.22-.42.49-.48.81l-2.16,11.91c-.06.32,0,.59.19.81.18.22.44.33.76.33h11.44l.12.09-1.87,2.78h-14.23l-3.26-3.89,2.42-13.19Z"/>
        <path class="cls-3" d="m145.8,30l1.87-2.87,3.69-5.65,1.87-2.87,3.69-5.65.06-.09-.84-2.72-.03-.09h7.58l.86,2.87,1.73,5.65.86,2.87,1.47,4.74.29.96.86,2.78h-7.58l-.86-2.87-.58-1.93h-8.61l-1.27,1.93-.06.09h.03l.86,2.78-5.91.06Zm14.06-7.63l-.26-.88-.86-2.87-.72-2.38-1.56,2.38-1.87,2.87-.58.88h5.85Z"/>
        <path class="cls-3" d="m183.94,27.08c.25,0,.47-.08.66-.23.19-.15.32-.33.39-.52.07-.2.08-.4.03-.61-.05-.21-.19-.36-.42-.45-.73-.32-1.44-.63-2.13-.93-.69-.3-1.38-.61-2.07-.93-.92-.42-1.77-.83-2.55-1.23-.78-.41-1.65-.82-2.61-1.23-.5-.21-.97-.49-1.41-.84-.44-.35-.81-.75-1.11-1.19-.3-.44-.52-.93-.66-1.46-.14-.53-.16-1.09-.04-1.67l.32-1.78,4.64-3.88h14.49l-.52,2.87h-12.01c-.27,0-.49.08-.68.23-.18.15-.31.33-.39.52-.08.2-.09.4-.04.6.05.2.19.35.42.44l2.97,1.33,6.42,3.04c.5.21.98.48,1.44.82.46.34.86.73,1.2,1.18.34.44.59.93.75,1.46.16.53.19,1.09.07,1.67l-.32,1.79-4.64,3.89h-15.41l.52-2.89,12.7.03Z"/>
      </g>
      <g>
        <path class="cls-2" d="m20.45,31.95v8.05h1.5v-2.03c0-.93.65-1.74,1.57-1.93.18-.04.36-.08.55-.13.9-.22,1.85.2,2.27,1.02l.89,1.74,3.36-1.64-.85-1.57c-.46-.85-.23-1.91.54-2.5.12-.09.24-.18.36-.28.72-.56,1.73-.56,2.45,0l1.48,1.13,2.28-2.72-1.52-1.2c-.75-.59-.97-1.63-.52-2.47.09-.18.19-.36.28-.54.4-.82,1.32-1.26,2.22-1.07l1.87.4.83-3.59-1.85-.4c-.85-.19-1.48-.9-1.56-1.76,0-.01,0-.02,0-.04h-4.55s-.16,10.51-11.58,11.53Z"/>
        <path class="cls-2" d="m20.45,8.05V.08h1.5v1.99c0,.93.65,1.74,1.57,1.94.18.04.36.08.55.13.9.22,1.84-.2,2.26-1.02l.89-1.72,3.36,1.62-.83,1.54c-.47.86-.23,1.93.55,2.52.12.09.23.18.35.27.72.55,1.71.55,2.43,0l1.48-1.13,2.28,2.69-1.5,1.18c-.76.59-.98,1.64-.52,2.48.09.17.18.34.26.51.41.81,1.31,1.25,2.21,1.06l1.88-.4.83,3.55-1.85.4c-.85.18-1.48.9-1.56,1.76,0,0,0,.01,0,.02h-4.55s-.16-10.41-11.58-11.42Z"/>
        <g>
          <path class="cls-2" d="m8.02,19.74c.12-6.44,5.34-11.63,11.82-11.79V0c-2.61.04-5.15.56-7.55,1.57-2.4,1.01-4.55,2.45-6.4,4.28s-3.3,3.97-4.31,6.35C.56,14.59.03,17.13,0,19.74h8.02Z"/>
          <path class="cls-2" d="m19.84,32c-6.37-.15-11.53-5.19-11.81-11.48H0c.07,2.5.6,4.94,1.58,7.24,1.01,2.38,2.46,4.52,4.31,6.35,1.85,1.83,4,3.27,6.4,4.28,2.4,1.01,4.93,1.53,7.55,1.57v-7.96Z"/>
        </g>
        <path class="cls-1" d="m31.29,18.62h-2.1s0,0,0,0c.07.45.11.91.11,1.38,0,5.02-4.17,9.1-9.3,9.1s-9.3-4.08-9.3-9.1,4.17-9.1,9.3-9.1c3.9,0,7.24,2.36,8.62,5.69l2.15-.21c-1.53-4.39-5.77-7.55-10.77-7.55-6.29,0-11.38,5-11.38,11.16s5.09,11.16,11.38,11.16,11.38-5,11.38-11.16c0-.47-.03-.93-.09-1.38Z"/>
        <path class="cls-1" d="m18.98,19.01h-2.11s1.53-2.04,2.72-1.54c0,0,.48.03,2,.97,0,0,.33.16.52.17h9.19s.19,1.8,0,2.67l-3.43.08h-6.26s-.29-.07-.68.16c0,0-.78.5-.92.58,0,0-.69.48-1.42.22,0,0-.41-.09-.85-.46,0,0-.35-.25-.88-.88h2.13l.65-.99-.65-.99Z"/>
      </g>
    </g>
  </g>
</svg>