<?xml version="1.0" encoding="UTF-8"?>
<svg id="Capa_1" data-name="Capa 1" xmlns="http://www.w3.org/2000/svg" viewBox="0 0 17.81 17.81">
  <defs>
    <style>
      .cls-1 {
        fill: #fff;
        height: 20px;
      }
    </style>
  </defs>
  <path class="cls-1" d="m17.49,13.95l-4.07-3.7c-.4-.36-1.01-.34-1.39.04l-2.39,2.46c-.58-.11-1.73-.47-2.93-1.66-1.19-1.19-1.55-2.35-1.66-2.93l2.46-2.39c.39-.38.41-.99.04-1.39L3.86.33c-.36-.4-.98-.44-1.39-.09L.3,2.1c-.17.17-.28.4-.29.65-.02.25-.3,6.17,4.29,10.77,4.01,4.01,9.02,4.3,10.41,4.3.2,0,.33,0,.36,0,.24-.01.48-.12.65-.29l1.86-2.17c.35-.41.32-1.03-.09-1.39Z"/>
</svg>