<?xml version="1.0" encoding="UTF-8"?>
<svg xmlns="http://www.w3.org/2000/svg" viewBox="0 0 18.45 18.54">
  <defs>
    <style>
      .cls-1 {
        fill: #fff;
      }

      .cls-1, .cls-2, .cls-3 {
        fill-rule: evenodd;
      }

      .cls-2 {
        fill: #25d366;
      }

      .cls-3 {
        fill: #fff;
      }
    </style>
  </defs>
  <g id="container">
    <path class="cls-3" d="m15.76,2.69C14.04.96,11.7,0,9.26,0,4.2,0,.08,4.12.08,9.19c0,1.62.42,3.2,1.23,4.59l-1.3,4.76,4.87-1.28c1.35.73,2.86,1.12,4.39,1.12h0c5.06,0,9.18-4.12,9.19-9.19,0-2.44-.96-4.78-2.69-6.5"/>
  </g>
  <g id="green">
    <path class="cls-2" d="m9.22,16.91h0c-1.37,0-2.71-.37-3.89-1.07l-.28-.17-2.89.76.77-2.82-.18-.29c-.76-1.22-1.17-2.63-1.17-4.06,0-4.21,3.43-7.63,7.64-7.63,2.03,0,3.97.8,5.4,2.24,1.44,1.43,2.24,3.38,2.23,5.4,0,4.21-3.43,7.64-7.63,7.64"/>
  </g>
  <g id="phone">
    <path class="cls-1" d="m13.42,11.1c-.23-.12-1.36-.67-1.57-.75-.21-.08-.36-.11-.52.11s-.59.75-.73.9-.27.17-.5.06-.97-.36-1.85-1.14c-.68-.61-1.14-1.36-1.28-1.59s-.01-.35.1-.47c.1-.1.23-.27.34-.4s.15-.23.23-.38.04-.29-.02-.4c-.06-.12-.52-1.25-.71-1.7-.19-.45-.37-.39-.52-.39-.15,0-.29,0-.44,0-.24,0-.46.11-.61.29-.21.23-.8.78-.8,1.91s.82,2.22.94,2.37c.11.15,1.62,2.47,3.92,3.47.55.24.98.38,1.31.48.55.17,1.05.15,1.45.09.44-.07,1.36-.55,1.55-1.09s.19-1,.13-1.09c-.06-.1-.21-.15-.44-.27"/>
  </g>
</svg>