<?xml version="1.0" encoding="UTF-8"?>
<svg id="Capa_1" data-name="Capa 1" xmlns="http://www.w3.org/2000/svg" xmlns:xlink="http://www.w3.org/1999/xlink" viewBox="0 0 992 543">
  <defs>
    <style>
      .cls-1 {
        filter: url(#drop-shadow-5);
      }

      .cls-1, .cls-2, .cls-3, .cls-4, .cls-5 {
        fill: #4b5563;
      }

      .cls-6 {
        fill: #3f3d56;
      }

      .cls-2 {
        filter: url(#drop-shadow-1);
      }

      .cls-7 {
        fill: #e6e6e6;
      }

      .cls-3 {
        filter: url(#drop-shadow-2);
      }

      .cls-8 {
        fill: #0080ff;
      }

      .cls-4 {
        filter: url(#drop-shadow-4);
      }

      .cls-9 {
        fill: none;
        isolation: isolate;
        opacity: .8;
        stroke: #6c63ff;
        stroke-miterlimit: 10;
        stroke-width: 2px;
      }

      .cls-5 {
        filter: url(#drop-shadow-3);
      }
    </style>
    <filter id="drop-shadow-1" filterUnits="userSpaceOnUse">
      <feOffset dx="2" dy="2"/>
      <feGaussianBlur result="blur" stdDeviation="2"/>
      <feFlood flood-color="#cbdfed" flood-opacity=".4"/>
      <feComposite in2="blur" operator="in"/>
      <feComposite in="SourceGraphic"/>
    </filter>
    <filter id="drop-shadow-2" filterUnits="userSpaceOnUse">
      <feOffset dx="2" dy="2"/>
      <feGaussianBlur result="blur-2" stdDeviation="2"/>
      <feFlood flood-color="#cbdfed" flood-opacity=".4"/>
      <feComposite in2="blur-2" operator="in"/>
      <feComposite in="SourceGraphic"/>
    </filter>
    <filter id="drop-shadow-3" filterUnits="userSpaceOnUse">
      <feOffset dx="2" dy="2"/>
      <feGaussianBlur result="blur-3" stdDeviation="2"/>
      <feFlood flood-color="#cbdfed" flood-opacity=".4"/>
      <feComposite in2="blur-3" operator="in"/>
      <feComposite in="SourceGraphic"/>
    </filter>
    <filter id="drop-shadow-4" filterUnits="userSpaceOnUse">
      <feOffset dx="2" dy="2"/>
      <feGaussianBlur result="blur-4" stdDeviation="2"/>
      <feFlood flood-color="#cbdfed" flood-opacity=".4"/>
      <feComposite in2="blur-4" operator="in"/>
      <feComposite in="SourceGraphic"/>
    </filter>
    <filter id="drop-shadow-5" filterUnits="userSpaceOnUse">
      <feOffset dx="2" dy="2"/>
      <feGaussianBlur result="blur-5" stdDeviation="2"/>
      <feFlood flood-color="#cbdfed" flood-opacity=".4"/>
      <feComposite in2="blur-5" operator="in"/>
      <feComposite in="SourceGraphic"/>
    </filter>
  </defs>
  <path class="cls-2" d="m336.4,334.11c-2.83-2.37-7.25-1.84-10.21-4.05-2.71-2.03-3.65-5.96-6.62-7.59-2.69-1.49-6.07-.54-9.06-1.24-5.27-1.23-8.59-7.31-13.98-7.87-3.04-.32-6.48,1.17-8.97-.6-2.19-1.56-2.28-4.69-2.7-7.35-1.5-8.47-8.11-15.1-16.57-16.63-3.13-.5-6.54-.31-9.21-2.03-2.7-1.74-3.94-5.01-6.06-7.42-3.42-3.89-8.8-5.27-13.84-6.46l-20.51-4.82c-3.64-.86-8.33-1.31-10.29,1.88-.58,1.21-.99,2.5-1.22,3.83-1.5,4.92-6,8.31-11.14,8.39-1.72-2.93-4.5-5.09-7.77-6.01-2.08-.58-4.3-.64-6.29-1.5-4.38-2.14-6.2-7.43-4.06-11.81.07-.15.15-.3.23-.44,2.43-4.33,1.66-9.75-1.88-13.23-3.49-3.13-8.53-3.89-13.21-3.57-1.22-2.67.82-5.69,3.03-7.63,2.21-1.94,4.89-3.85,5.37-6.75.76-4.56-5.06-8.03-9.48-6.67-4.42,1.36-7.24,5.65-9.1,9.88-1.07,2.43-1.98,4.98-3.67,7.03s-4.4,3.51-6.98,2.86c-3.64-.93-5.04-5.25-5.85-8.92-1.08-4.92-2.17-9.91-1.94-14.95.23-5.03,1.92-10.2,5.64-13.61,6.05-5.55,15.33-5.01,23.49-4.12-1.93-2.17-1.45-5.84.61-7.88,2.21-1.96,5.25-2.71,8.12-2,2.46.51,4.68,1.84,6.29,3.76,2.32,2.83,2.98,6.65,4.73,9.86s5.7,5.95,8.92,4.23c2.79-1.49,3.23-5.35,2.54-8.44-.69-3.08-2.17-6.08-1.92-9.23.48-6.01,6.71-9.63,12.21-12.1,5.5-2.47,11.79-5.8,12.66-11.77.03-1.17.25-2.32.65-3.42.61-.97,1.46-1.77,2.46-2.31,16.04-10.6,32.35-21.34,50.69-27.13.95-.3,1.07.03,2.04-.2,1.36-.79.46-2.96-.85-3.84-1.3-.88-3.05-1.55-3.38-3.08-.24-1.13.42-2.24.6-3.38.42-2.81-2.93-5.4-5.54-4.28-1.47-1.95,1.44-4.22,3.8-4.87,7.08-1.95,14.34-3.13,21.67-3.54.85-.13,1.71.01,2.47.42,1.23.85,1.07,2.81.2,4.03s-2.23,1.98-3.32,3.01c-2.42,2.36-3.33,5.87-2.35,9.1,3.83,1.95,7.99,3.95,12.22,3.26,4.24-.69,8-5.45,6.01-9.25-1.85-3.54-7.43-4.34-8.38-8.22-1.12-4.54,5.31-8.58,3.86-13.04-.63-1.95-2.58-3.1-4.07-4.5-3.6-3.53-4.67-8.92-2.67-13.55-4.93.87-9.97-.71-13.52-4.23-3.23-3.26-5.81-8.41-10.41-8.27-4.21.13-7.85,5.05-11.79,3.55-.97-.37-1.99-1.12-2.93-.68-.62.41-1.03,1.07-1.09,1.82-1,4.79.72,10.24-1.89,14.38-2.84,4.5-9.41,5.13-12.85,9.19-1.87,2.2-2.59,5.17-4.31,7.5-1.72,2.32-5.36,3.8-7.43,1.78,2.09-4.29.93-9.45-2.78-12.45-1.91-1.25-3.98-2.25-6.14-2.99-2.42-1.02-4.72-2.31-6.86-3.82-1.07-.65-1.95-1.58-2.52-2.69-.45-1.4-.39-2.91.17-4.26,2.13-6.11,7.47-10.53,13.87-11.49,2.74-.37,5.94-.24,7.76-2.33.96-1.11,1.47-2.78,2.86-3.23.89-.18,1.82-.07,2.64.33l10.25,3.61c1.14.52,2.4.72,3.65.6,1.28-.17,2.22-1.31,2.14-2.6-.33-1.7-2.95-2.52-2.71-4.23.13-.56.43-1.06.86-1.44,1.74-1.85,3.66-3.49,5.71-4.93-.36-.11-.71-.26-1.05-.44,0,.01.01.02.02.03-2.54-1.06-6.39-1.26-8.93-2.32-.37-2.95-1.13-5.85-2.25-8.6-.29-1.05-1.01-1.94-1.98-2.44-.64-.17-1.32-.17-1.96-.02l-10.09,1.54c-.84.04-1.65.35-2.3.89-1.31,1.38-.02,3.61-.06,5.51-.05,2.14-1.95,3.88-4.02,4.46-2.11.43-4.28.4-6.38-.08l-14.11-2.19c4.15-1.33,7.85-3.79,10.67-7.12,1.86-2.2,2.84-6.3.16-7.35-.8-.22-1.63-.29-2.45-.2-6.39.05-11.42-5.29-17.4-7.53-7.85-2.76-16.59-.15-21.65,6.46l7.51.36c.71-.04,1.41.15,2,.53,1.65,1.35-.4,3.95-.17,6.07.3,2.75,3.96,3.34,6.71,3.62,2.75.28,6.25,2.52,4.92,4.95-13.85,4.77-27.94-9.32-42.48-7.59-3.68.44-7.16,1.88-10.75,2.79-21.95,5.55-44.64-9.26-67.07-6.13-4.99.85-9.88,2.14-14.64,3.86-3.05,1-6.24,2.09-8.45,4.41-2.22,2.32-3.06,6.3-.96,8.73-5.79.48-11.62-.08-17.22-1.64,3.08,1.71,4.98,4.97,4.96,8.5-9.04,1.47-17.84,4.16-26.17,7.98,1.55,2.58,3.37,5,5.42,7.21l-11.45,7.35c3.87.97,5.87,6.25,3.62,9.54,4.01-1.78,6.49-6.4,10.78-7.33,2.81-.61,5.67.54,8.33,1.62s5.59,2.13,8.35,1.32,4.79-4.39,3.04-6.67c11.79-3.44,23.98-5.34,36.25-5.66.95-.12,1.91.06,2.75.52,1.6,1.11,1.18,3.5,1.09,5.45-.09,1.94,1.43,4.5,3.17,3.62-2.04,1.77-.3,5.11,1.66,6.97,1.96,1.86,4.32,4.43,3.12,6.86-.31.63-.84,1.14-1.15,1.78-.89,1.88.52,4.08,2.19,5.33,1.67,1.25,3.71,2.13,4.86,3.86,1.16,1.73.63,4.77-1.44,5.01l-5.88-7.47c-2.01,2.08-3.39,4.69-3.97,7.53,6.24,5.1,7.18,15.48,1.95,21.61-2.67,3.14-6.46,5.04-9.78,7.49-3.31,2.45-6.38,5.93-6.37,10.05.01,7.11-.57,13.72,2.1,20.32,4.92,12.16,10.59,24,16.99,35.45,1.68,3.01,3.85,6.3,7.26,6.82-4.3-10.48-8.18-21.12-11.62-31.92,2.24,0,4.84.19,6.15,2,1.09,1.51.86,3.55,1.19,5.38.43,1.77,1.15,3.46,2.12,4.99l20.55,36.6c1.7,3.03,3.66,6.29,6.91,7.52,2.08.79,4.49.64,6.41,1.77,1.5.89,2.51,2.46,4.04,3.3,4.33,2.36,10.35-2.17,14.39.65,1.16.81,1.89,2.09,2.96,3.01,3.74,3.24,9.87,1.07,14.18,3.48,2.78,1.56,4.22,4.67,5.7,7.49,3.71,7.06,9.72,13.98,17.68,14.54,2.5.18,5.05-.3,7.5.26s4.85,2.69,4.46,5.16c-.67,4.24,1.42,8.89.86,13.15-1.03,7.76-12.03,11.17-12.98,18.94-.21,1.7.12,3.46-.29,5.12-.5,2.04-2.03,3.7-2.57,5.73-1.03,3.84,1.72,7.67,4.75,10.26,3.03,2.59,6.63,4.82,8.29,8.44,1.75,3.83.89,8.29,1.46,12.46,1.24,9.1,9.1,15.85,17.19,20.2,2.46,1.33,5.11,2.61,6.71,4.91,2.08,3,1.87,6.96,2.57,10.54,1.7,8.78,9.1,16.02,9.31,24.96.15,6.36-3.38,12.12-5.49,18.12-4,11.63-2.74,24.42,3.45,35.05,1.58,2.67,3.47,5.18,4.58,8.07,1.99,5.16,1.35,11.02,3.18,16.24,2.43,6.89,9.11,12.59,8.47,19.87,3.03,6.29,9.72,9.39,16.45,11.26l12.06,3.36c2.31.64,4.72,1.29,7.07.83s4.6-2.42,4.54-4.81c-5.91-1.33-12.02-2.75-16.9-6.36-4.88-3.6-8.22-10.02-6.37-15.8.86-2.68,2.68-5.77.95-7.98-.99-1.27-2.81-1.6-3.93-2.75-1.75-1.8-1.15-4.83.11-7s3.07-4.12,3.58-6.58c.52-2.82-.76-5.66-3.22-7.14,2.24-.84,4.27-2.15,5.97-3.83,1.57-1.79,2.3-4.56,1.06-6.6,3.67.47,8,.69,10.4-2.11,1.92-2.24,1.79-5.59,1.03-8.44s-2.04-5.62-2.08-8.58c8.46.4,16.94.11,25.35-.86-1.22-4.1-3.98-7.56-7.71-9.65,3.81-.64,7.28-5.21,8.49-8.88,1.2-3.67.9-7.67.15-11.47-.29-.98-.32-2.01-.11-3,.43-1.37,1.77-2.2,3.02-2.92l18.91-10.86c1.13-.57,2.15-1.32,3.02-2.23,1.98-2.33,1.69-5.84.67-8.73-1.01-2.88-2.64-5.6-3.03-8.63-1.17-9.07,8.54-15.57,11.81-24.11,1.29-3.35,1.55-6.99,1.8-10.57.27-3.84.29-8.31-2.66-10.79Z"/>
  <path class="cls-3" d="m314.22,16.75l5.5,1.06c-3.93-.17-7.26,2.87-7.43,6.8-.01.31,0,.61.02.92,5.15,1.72,10.76.05,16.18.27s11.73,4.1,10.81,9.45c-.28,1.62-1.21,3.23-.73,4.8.34,1.1,1.31,1.88,1.86,2.89,1.14,2.11.23,4.78-1.21,6.69s-3.37,3.45-4.64,5.48c-3.14,5.07-1.36,11.62.51,17.28.54,2.14,1.54,4.13,2.93,5.85,2.77,2.95,7.29,3.2,11.34,3.26,2.95.04,6.32-.1,8.18-2.38,2.43-2.98.73-7.63,2.33-11.12,1.45-3.18,5.16-4.54,8.52-5.5,6.15-1.77,12.42-3.28,18.23-5.95,7.22-3.32,13.97-8.49,21.9-8.92,2.23-.12,4.51.14,6.65-.47s4.18-2.46,4.02-4.69c-.14-1.9-1.75-3.29-3-4.73s-2.24-3.63-1.09-5.15l20.8-3.88c-1.47-4.02-2.62-9.31.76-11.92,1.22-.94,2.86-1.32,3.9-2.46,1.77-1.94.88-5.29-1.17-6.95s-4.82-2.04-7.44-2.26c-9.12-.76-18.29-.26-27.43.24-17.86.98-35.72,1.96-53.58,2.94-3.6.2-7.75-.1-11.04,1.12-2.79,1.04-4.78,2.94-7.97,3.61-5.89,1.24-12.38.4-17.71,3.71Z"/>
  <path class="cls-5" d="m935.72,371.1c.58-3.18,3.76-6,2.77-9.08-.68-2.13-3.16-3.18-5.39-3.24s-4.44.61-6.67.68c-1.46-.08-2.92-.06-4.37.06-4.44.73-7.18,5.39-11.37,7.04-2.55,1.01-5.41.81-8.05,1.51-6.01,1.58-9.81,7.26-14.01,11.84-6.79,7.37-15.63,12.52-25.38,14.8-3.42.79-7.09,1.3-9.81,3.52-3.6,2.94-4.48,7.98-5.28,12.55-2.21,12.64-5.59,25.04-10.09,37.05l14.27,1.82c2.71.35,5.52.69,8.14-.12,1.9-.72,3.7-1.67,5.35-2.85,6.36-3.95,13.47-6.51,20.88-7.54,3.74-.51,7.66-.61,11.16.78s6.52,4.54,6.81,8.3c3.09-.96,6.46-.14,8.76,2.13,2.23,2.28,3.7,5.2,4.18,8.35.38,1.95.75,4.29,2.56,5.11,1.48.67,3.17-.05,4.79-.18,5.49-.44,10.04,5.96,15.43,4.86,5.78-1.18,7.2-9.84,12.85-11.58,3.24-1,7.79.22,9.34-2.8,1.37-2.66-1.36-5.72-1.08-8.7.35-3.66,4.67-5.22,8-6.78,11.48-5.39,16.93-20.84,11.37-32.24-3.3-6.75-9.78-12.07-10.98-19.49-.92-5.71,1.33-12.37-2.31-16.86-1.85-2.29-4.99-3.55-6.09-6.28-.69-1.72-.41-3.66-.79-5.48s-1.96-3.71-3.75-3.24c-5.2,1.36-6.86,17.42-9.64,21.33-4.23,5.93-12.92,2.02-11.58-5.28Z"/>
  <path class="cls-4" d="m532.22,185.44c.36,1.95.72,4,.08,5.87s-2.65,3.44-4.54,2.87c-1.47-.45-2.32-1.92-3.36-3.05-5.81-6.27-18.91-2.64-22.5-10.4-1.46-3.17-.47-6.96-1.47-10.3-1.3-3.97-5.11-6.57-9.29-6.31-1.85.27-3.65.8-5.34,1.6-11.34,4.54-23.25,7.52-35.4,8.85-2.31.14-4.59.56-6.8,1.24-4.99,1.81-8.4,6.43-10.82,11.15s-4.22,9.83-7.47,14.02c-3.42,4.41-8.21,7.49-12.67,10.83-1.72,1.11-3.15,2.61-4.18,4.38-.97,1.99-.91,4.3-.84,6.51l.91,26.84c.12,3.45.26,7.03,1.81,10.12,1.93,3.86,5.74,6.39,8.39,9.79,2.7,3.5,4.1,7.83,3.98,12.25-.06,1.78-.23,3.88,1.15,4.99.84.55,1.83.83,2.83.81l36.31,2.97c6.39.52,13.47,1.38,17.64,6.25,1.97,2.3,3.55,5.6,6.56,5.85,1.29.11,2.55-.43,3.84-.53,3.26-.26,6.13,2.22,7.94,4.95,2.74,4.16,3.98,9.12,3.52,14.08-.3,3.11-1.26,6.14-1.47,9.26-.79,11.87,9.27,22.18,9.46,34.07.11,7-3.21,13.53-6.44,19.73,5.23,7.92.95,18.46,3.03,27.71,1.97,8.78,9.29,15.65,11.12,24.46.84,4.03.88,9,4.44,11.08,1.56.76,3.29,1.11,5.02,1.01,10.46.12,20.79-2.23,30.17-6.87,4.4-2.18,8.96-5.44,9.73-10.29.62-3.91-1.36-8.29.65-11.69,2.38-4.02,8.47-3.7,11.97-6.78,5.68-5.01,1.25-14.56,3.55-21.77,2.07-6.48,9.19-9.93,12.72-15.75,1.39-2.5,2.39-5.2,2.96-8.01,1.62-6.7,2.62-13.54,3.01-20.43.09-4.18.4-8.36.92-12.51,3.8-23.64,27.17-39.47,34.76-62.17.72-2.17,1.06-5.06-.86-6.28-1.14-.55-2.44-.68-3.67-.38l-16.74,2.11c-2.08.26-4.28.51-6.19-.36s-3.28-3.28-2.27-5.11c2.84-5.15-3.01-11.66-5.6-16.93-7-14.21-15.33-27.72-24.88-40.36-.61-.65-.99-1.48-1.09-2.37l4.75.16c-1.6-5.75-4.25-12.05-9.84-14.16-3.15-1.19-6.64-.78-10-.59-9.63.53-19.95-.93-29.48-2.4Z"/>
  <path class="cls-1" d="m561.7,55.77c2.52,2.68,5.34,5.51,8.99,5.98,6.44.82,11.07-5.83,14.01-11.62.23,3.07,2.85,5.39,5.92,5.25,1.59-.27,3.11-.86,4.46-1.74,12.76-6.97,27.04-10.66,41.58-10.75-.29-2.28,1.19-4.41,3.43-4.94,2.96-.59,5.62,1.97,7.04,4.62s2.31,5.73,4.58,7.72,6.65,1.9,7.55-.98c.86-2.76-2.02-5.12-4.41-6.75s-4.91-4.64-3.3-7.05c12.21-2.7,24.5-5.42,37-5.95,2.13.07,4.25-.29,6.23-1.07,1.91-.94,3.42-3.06,2.91-5.12-5.58,1.31-11.4-.88-14.72-5.55,17.34-1.43,35.78-2.65,51.15,5.51,1.84,3.96-7.55,7.25-5.04,10.82.8,1.14,2.41,1.27,3.8,1.3,10.68.2,21.42.39,31.98-1.22,3.86-.59,7.76-1.42,11.63-.94,6.45.8,11.97,5.1,18.32,6.51,2.58.57,5.48.59,7.66-.91s3.11-4.92,1.33-6.88c5.98-5.86,15.9-4.41,23.78-1.6s15.36,7.33,23.7,7.95c5.98.45,12.05-1.16,17.97-.14,3.72.64,7.17,2.3,10.81,3.31,6.87,1.92,14.14,1.52,21.27,1.61,18.2.25,36.2,3.82,53.11,10.55,2.2.72,4.22,1.91,5.9,3.49,1.57,1.68,2.38,4.3,1.32,6.35l-17.47-2.55c1.65,3.24,5.91,3.79,9.36,4.91s7.04,4.94,4.97,7.92c-3.75-1.19-7.14,2.55-9.04,6s-4.2,7.58-8.13,7.79c-3.52.19-7.77-2.81-10.06-.13,3.17,4,5.88,8.33,8.09,12.93,2.26,4.72,3.88,10.66.82,14.91-.48.76-1.21,1.32-2.07,1.6-2.5.63-4.12-2.43-5.92-4.28-2.26-2.34-5.68-3-8.73-4.09s-6.28-3.25-6.52-6.49c-.15-2.02.92-3.89,1.7-5.75,1.32-3.14,1.89-6.54,1.68-9.94-.17-2.74-.94-5.58-2.9-7.49s-5.36-2.52-7.46-.77c-.98.82-1.77,2.12-3.05,2.17-2.26.09-3.99-3.85-5.81-2.51.21,1.43-.08,2.89-.84,4.13-5.42,4.71-13.75,2.72-20.74,4.39-3.32.95-6.5,2.34-9.46,4.13-1.11.47-2.05,1.26-2.7,2.27-.87,1.7.09,3.87,1.63,4.99,1.63,1,3.46,1.63,5.36,1.83,8.52,1.61,17.16,4.11,23.89,9.58s11.14,14.52,9.01,22.92l-16.8-16.05c.64,6.74,1,13.5,1.09,20.28.11,1.32-.07,2.65-.53,3.9-1.2,2.65-4.44,3.54-7.29,4.12-3.1.59-5.13,3.58-4.54,6.67.04.22.09.43.16.64,1.01,3.29,3.53,5.86,5.84,8.42s4.58,5.47,4.88,8.9-2.29,7.3-5.73,7.06c-2.61-.18-4.54-2.51-5.65-4.88s-1.77-5-3.44-7.01c-5.05-6.08-16.41-3.47-20.94-9.96-2.35,2.66-3.15,6.35-2.12,9.75,2.11-1.32,4.99-.09,6.57,1.82s2.33,4.37,3.57,6.53c1.68,2.9,4.35,5.48,4.58,8.82-.06,1.27-.04,2.53.06,3.8.42,2.03,2.13,3.48,3.32,5.18,2.76,3.94,2.63,9.36.85,13.83s-4.98,8.21-8.15,11.84c-5.54,6.33-11.19,12.62-17.75,17.88-1.87,1.5-3.87,2.97-5.04,5.07s-1.23,5.04.57,6.64c-1.28.06-3.58.7-4.87.76-.45-5.15-.55-10.32-.29-15.48-5.06-2.43-10.51,4.08-9.86,9.66s4.69,10.05,7.56,14.88c2.1,3.53,3.66,7.64,2.96,11.69s-4.31,7.78-8.4,7.42c-6.51-.57-9.23-9.91-15.67-10.98-.57-.13-1.16-.07-1.7.17-.96.52-1.12,1.8-1.18,2.89-.26,5.35-.49,10.91,1.6,15.84,3.05,7.21,10.95,13.27,9.29,20.93-8.92-4.15-13.55-14.15-15.66-23.75s-2.46-19.69-6.23-28.77c-2.87,3.67-8.89.64-11.51-3.22-2.48-3.65-4.01-7.88-6.42-11.58s-6.1-7.02-10.51-7.22c-4.63-.21-8.64,2.96-12.16,5.96-2.9,2.47-5.88,5.03-7.58,8.44-2.47,4.96-1.82,10.81-1.94,16.35-.13,5.99-1.4,12.31-5.48,16.69s-11.62,5.91-16.12,1.96c-2.35-2.06-3.49-5.14-4.5-8.1-4.89-14.26-8.96-28.79-12.19-43.51-.76,3.36-3.71,7.69-6.53,5.71-.63-.53-1.15-1.19-1.5-1.94-5.26-8.91-15-14.26-24.84-17.46s-20.19-4.7-29.92-8.22c-5.45-1.97-10.66-4.57-15.52-7.73-2.52,3.71-2.81,8.5-.75,12.49,2.16,3.82,7.04,6.03,11.22,4.7,2.16-.69,3.98-2.19,6.13-2.93s5.02-.38,5.96,1.69c.9,1.98-.46,4.37.21,6.43,1.02,3.14,5.77,3.39,7.42,6.25,1.23,2.13.22,4.95-1.54,6.67s-4.11,2.66-6.26,3.86c-6.98,3.88-11.94,10.5-18.03,15.65s-14.7,8.91-21.96,5.61c1.73-8.77-8.72-15.21-10.64-23.94-.63-2.87-.3-5.93-1.21-8.73-1.31-4.05-4.9-6.84-7.86-9.91-7.23-7.61-11.08-17.82-10.67-28.31.16-3.61.82-7.28,0-10.79s-3.73-6.92-7.34-6.76c-8.24.36-18.62.98-22.95-6.05-1.54-2.51-2.21-6.18.02-8.1,1.57-1.36,3.9-1.23,5.96-1.02l18.57,1.83c4.34.43,9.04.78,12.76-1.49s5.34-8.3,1.89-10.97c-2.52-1.95-7.04-1.85-7.77-4.95-.61-2.58,2.25-5.52.71-7.68-1.11-1.55-3.6-1.12-5.11.04s-2.6,2.86-4.29,3.74c-2.96,1.54-6.5.07-9.69-.92s-7.46-1.08-9.01,1.88c-1.73,3.31,1.53,7.65-.18,10.97-2.27,4.39-9.95,1.89-13.14,5.66-3.66,4.33,2.49,10.79,1.26,16.32-3.2,1.59-7,1.37-10.01-.56-2.96-2.01-4.57-5.49-4.2-9.05.31-2.49,1.6-5.03.73-7.38-.7-1.9-2.61-3.03-4.39-4.01l-18.04-9.97c-1.68,3.11.44,6.96,3.09,9.29s5.97,4.09,7.71,7.16c2.28,4.42.73,9.85-3.54,12.4-.52.36-1.18.47-1.79.31-.58-.34-1-.9-1.16-1.56-3.18-8.15-7.96-16.18-15.61-20.44s-18.62-3.38-23.63,3.79c-1.19,1.7-1.99,3.64-3.03,5.44-5.51,9.57-17.32,14.09-28.35,13.8-1.08.06-2.15-.19-3.09-.73-1.78-1.23-1.7-3.85-1.43-6l1.16-9.12c.23-1.83.57-3.86,2.02-5,2.04-1.61,4.99-.59,7.6-.63,4.04-.19,7.53-2.88,8.74-6.74,1.07-3.88-.09-8.03-3.02-10.79-1.19-1.12-2.79-2.53-2.16-4.04.51-.85,1.37-1.42,2.34-1.58,4.68-1.36,9.62-1.71,14.22-3.32s9.06-4.88,10.15-9.63c.33-1.45.49-3.22,1.79-3.94.66-.28,1.36-.42,2.07-.42,5.17-.74,8.92-5.29,8.64-10.51,2.2-1.54,5.29-.41,7.42,1.23s4.01,3.8,6.61,4.51c4.83,1.32,9.51-2.96,14.52-2.98,2.11,0,4.29.74,6.27.02,2.01-.72,3.21-2.72,4.75-4.2s4.25-2.38,5.67-.79l-1.21-8.98c4.94,1.25,10.18.3,14.37-2.6l-15.67-5.3c-.55-.14-1.05-.41-1.47-.78-1.14-1.23,0-3.14.92-4.53,2.22-3.34,2.59-8.83-1.06-10.49-2.49-1.13-5.34.23-7.73,1.56l-11.44,6.38c-.36,2.17,2.3,3.41,3.94,4.87,2.73,2.43,2.97,6.6.55,9.33-1.24,1.39-3,2.2-4.86,2.22,1.53,1.98,2.07,4.55,1.47,6.98l-7.7.55c-.86.17-1.76,0-2.5-.49-.82-.73-.71-2.01-.9-3.1-.46-2.62-3.02-4.45-5.64-4.92s-5.29.13-7.88.73c-1.1.4-2.31.37-3.39-.08-.62-.4-1.09-1-1.34-1.69-1.14-2.75-.07-5.99,1.75-8.34s4.32-4.08,6.56-6.03c5.36-4.7,9.3-10.81,11.37-17.64,4.24-1.78,8.62-4.19,12.86-5.96,6.53-3.31,13.86-4.73,21.15-4.1l14.35.27c4.25.08,8.61.19,12.54,1.8s7.38,5.12,7.65,9.36c.17.98-.18,1.97-.92,2.63-.55.3-1.18.44-1.81.41-3.96.14-5.65,1.13-9.61,1.27Z"/>
  <path class="cls-9" d="m258.2,370.54s139.09-100.44,278.15-85.84c0,0,72.52-88.68,390.82,127.11C717.11,133.24,150.07,114.67,150.07,114.67c128.76-17.33,386.28,170.03,386.28,170.03,0,0,121.74-156.82,180.35-171.68,0,0-412.69,135.36-458.5,257.52,12.8-155.33-108.13-255.87-108.13-255.87"/>
  <g>
    <polygon class="cls-6" points="137.15 116.52 142.43 124.01 141.72 124.47 142.28 125.33 144.25 124.05 143.69 123.19 143.12 123.56 138.17 115.86 137.15 116.52"/>
    <path class="cls-6" d="m140.58,123.46h0c.3-.19.7-.11.9.19l1.46,2.24c.19.3.11.7-.19.9h0c-.3.19-.7.11-.9-.19l-1.46-2.24c-.19-.3-.11-.7.19-.9Z"/>
    <path class="cls-6" d="m143.33,121.67h0c.3-.19.7-.11.9.19l1.46,2.24c.19.3.11.7-.19.9h0c-.3.19-.7.11-.9-.19l-1.46-2.24c-.19-.3-.11-.7.19-.9Z"/>
    <polygon class="cls-8" points="140.45 107.58 128.98 114.32 130.2 112.39 140.06 106.19 140.45 107.58"/>
    <polygon class="cls-8" points="96.75 137.57 97.76 136.19 140.26 110.13 141.48 108.21 143.95 113.6 108.46 131.63 96.75 137.57"/>
    <polygon class="cls-6" points="109.35 133.45 108.46 131.63 143.95 113.6 145.39 116.22 109.35 133.45"/>
    <ellipse class="cls-6" cx="132.55" cy="120.29" rx="4.1" ry="4.36" transform="translate(-44.13 91.61) rotate(-33.01)"/>
    <circle class="cls-8" cx="132.12" cy="119.64" r="3.02"/>
    <polygon class="cls-6" points="160.46 101.39 165.15 109.25 165.86 108.79 166.42 109.66 164.45 110.94 163.89 110.07 164.46 109.69 159.44 102.05 160.46 101.39"/>
    <rect class="cls-6" x="165.83" y="107.01" width="1.29" height="3.97" rx=".65" ry=".65" transform="translate(-32.51 108.28) rotate(-33.01)"/>
    <rect class="cls-6" x="163.08" y="108.8" width="1.29" height="3.97" rx=".65" ry=".65" transform="translate(-33.92 107.07) rotate(-33.01)"/>
    <polygon class="cls-8" points="150.95 100.77 161.76 93.02 159.51 93.35 149.83 99.84 150.95 100.77"/>
    <polygon class="cls-8" points="145.94 101.8 138.2 90.98 138.53 93.24 145.02 102.91 145.94 101.8"/>
    <polygon class="cls-8" points="196.12 73.03 194.44 73.4 153.36 101.62 151.1 101.96 155.02 106.41 185.92 81.31 196.12 73.03"/>
    <polygon class="cls-6" points="187.22 82.87 185.92 81.31 155.02 106.41 156.83 108.79 187.22 82.87"/>
    <ellipse class="cls-6" cx="165.77" cy="98.71" rx="4.1" ry="4.36" transform="translate(-27.02 106.23) rotate(-33.01)"/>
    <circle class="cls-8" cx="165.34" cy="98.06" r="3.02"/>
    <path class="cls-8" d="m151.11,98.69l.62,1.32,4.15,6.57c.31.49.56,1.01.75,1.54.56,1.56.62,3.27.11,4.87-.47,1.46-1.42,2.95-3.28,4-4.96,2.81-8.03-.98-8.03-.98l-4.61-7.49-.63-1.03-.97-1.97s-2.76-5.51,2.69-8.85c5.45-3.33,9.2,2,9.2,2Z"/>
    <polygon class="cls-7" points="139.68 103.7 139.63 101.25 140.73 99.93 145.43 96.87 146.87 96.55 149.05 97.61 146.57 97.99 141.18 101.48 139.68 103.7"/>
    <g>
      <polygon class="cls-6" points="151.77 113.6 155.15 118.4 154.7 118.69 155.06 119.25 156.33 118.43 155.96 117.87 155.6 118.11 152.43 113.17 151.77 113.6"/>
      <path class="cls-6" d="m153.97,118.05h0c.19-.12.45-.07.57.12l.93,1.44c.12.19.07.45-.12.57h0c-.19.12-.45.07-.57-.12l-.93-1.44c-.12-.19-.07-.45.12-.57Z"/>
      <path class="cls-6" d="m155.73,116.9h0c.19-.12.45-.07.57.12l.93,1.44c.12.19.07.45-.12.57h0c-.19.12-.45.07-.57-.12l-.93-1.44c-.12-.19-.07-.45.12-.57Z"/>
    </g>
    <rect class="cls-8" x="140.87" y="98.61" width=".24" height="4.46" transform="translate(-23.78 47.02) rotate(-17.48)"/>
    <rect class="cls-8" x="146.46" y="95.83" width=".24" height="4.46" transform="translate(-26.91 129.72) rotate(-44.12)"/>
  </g>
  <circle id="SurAmericaPoint" class="cls-8" cx="258.2" cy="370.54" r="8"/>
  <circle id="EuropaPoint" class="cls-8" cx="716.7" cy="113.02" r="8"/>
  <circle id="OceaniaPoint" class="cls-8" cx="927.17" cy="411.81" r="8"/>
  <circle id="africaPoint" class="cls-8" cx="536.35" cy="284.7" r="8"/>
</svg>